
<svg width="12px" height="27px" viewBox="0 0 12 27" version="1.1" xmlns="http://www.w3.org/2000/svg" xmlns:xlink="http://www.w3.org/1999/xlink">
    <!-- Generator: Sketch 39.1 (31720) - http://www.bohemiancoding.com/sketch -->
    <desc>Created with Sketch.</desc>
    <defs></defs>
    <path d="M11.8552,9.2638914 L7.8256,9.2638914 L7.8256,6.59565611 C7.8256,6.1460611 7.95213207,5.81375673 8.2052,5.59873303 C8.39986764,5.44235216 8.64319854,5.3641629 8.9352,5.3641629 L11.7968,5.3641629 L11.7968,0.965972851 L7.8548,0.936651584 C6.51159328,0.936651584 5.40200438,1.24940864 4.526,1.87493213 C3.80572973,2.38316996 3.27040175,3.09664699 2.92,4.01538462 C2.6474653,4.71909854 2.5112,5.49121752 2.5112,6.33176471 L2.5112,9.2638914 L0,9.2638914 L0,13.7793665 L2.5112,13.7793665 L2.5112,26.5927602 L7.8256,26.5927602 L7.8256,13.7793665 L11.388,13.7793665 L11.8552,9.2638914 Z" id="facebook" stroke="none" fill="#FFFFFF" fill-rule="evenodd"></path>
</svg>