
<svg width="26px" height="27px" viewBox="47 0 26 27" version="1.1" xmlns="http://www.w3.org/2000/svg" xmlns:xlink="http://www.w3.org/1999/xlink">
    <!-- Generator: Sketch 39.1 (31720) - http://www.bohemiancoding.com/sketch -->
    <desc>Created with Sketch.</desc>
    <defs></defs>
    <path d="M65.1091357,9.81447964 L72.4967357,9.81447964 L72.4967357,10.1663348 L72.4967357,21.3377376 C72.4967357,22.2369276 72.2728713,23.0676885 71.8251357,23.8300452 C71.3774001,24.592402 70.7739395,25.193482 70.0147357,25.6333032 C69.2555319,26.0731244 68.4282069,26.2930317 67.5327357,26.2930317 L52.0567357,26.2930317 C51.1612646,26.3125793 50.3339395,26.0975588 49.5747357,25.6479638 C48.8155319,25.1983688 48.2072047,24.592402 47.7497357,23.8300452 C47.2922668,23.0676885 47.0635357,22.2369276 47.0635357,21.3377376 L47.0635357,9.8438009 L54.4511357,9.8438009 C53.2052628,11.739919 52.9327322,13.7141979 53.6335357,15.7666968 C54.1202048,17.1545771 54.9864628,18.2492268 56.2323357,19.0506787 C57.0499398,19.5980118 57.9307977,19.935203 58.8749357,20.0622624 C59.8190738,20.1893219 60.7485978,20.1160195 61.6635357,19.8423529 C62.5784736,19.5686864 63.3960655,19.1093245 64.1163357,18.4642534 C64.836606,17.8191823 65.3816672,17.0372897 65.7515357,16.118552 C66.1603378,15.121624 66.3258028,14.1051636 66.2479357,13.0691403 C66.1506019,11.9353789 65.7710057,10.8505029 65.1091357,9.81447964 L65.1091357,9.81447964 Z M50.2171357,6.97031674 L50.2171357,1.42859729 C50.2171357,1.21357359 50.2366022,1.0816292 50.2755357,1.03276018 C50.3144692,0.983891158 50.4507346,0.920362382 50.6843357,0.842171946 L50.9471357,0.783529412 L50.9471357,6.97031674 L51.9983357,6.97031674 L51.9983357,0.666244344 L52.6699357,0.666244344 L52.6699357,6.97031674 L53.7211357,6.97031674 L53.7211357,0.636923077 L67.5327357,0.636923077 C68.4087401,0.636923077 69.2214653,0.85683038 69.9709357,1.29665158 C70.7204061,1.73647279 71.3238668,2.32777909 71.7813357,3.07058824 C72.2388047,3.81339738 72.477269,4.61483733 72.4967357,5.47493213 C72.5162025,5.96362235 72.5259357,6.55004183 72.5259357,7.23420814 C72.506469,8.68073121 72.4967357,9.27692435 72.4967357,9.02280543 L64.6711357,9.02280543 C64.4959348,9.02280543 64.3596695,8.96416348 64.2623357,8.84687783 C63.4057981,8.06497347 62.4422077,7.53719594 61.3715357,7.26352941 C60.3008637,6.98986289 59.2302077,6.99474971 58.1595357,7.27819005 C57.0888637,7.56163038 56.1252733,8.09429473 55.2687357,8.8761991 C55.1714019,8.97393714 55.0740695,9.02280543 54.9767357,9.02280543 L47.2387357,9.02280543 L47.0927357,8.99348416 L47.0927357,7.87927602 C47.073269,8.11384733 47.0635357,7.66425906 47.0635357,6.53049774 C47.0635357,6.00271229 47.0830022,5.55312403 47.1219357,5.18171946 C47.2192695,3.754744 47.8713964,2.57213139 49.0783357,1.63384615 L49.1951357,1.60452489 L49.1951357,6.97031674 L50.2171357,6.97031674 Z M70.1899357,4.94714932 C70.1899357,4.94714932 70.1899357,4.72235519 70.1899357,4.27276018 L70.1899357,3.59837104 C70.1899357,3.34425212 70.1169365,3.14389214 69.9709357,2.99728507 C69.824935,2.850678 69.6351369,2.77737557 69.4015357,2.77737557 C68.5060646,2.75782796 67.6008736,2.75782796 66.6859357,2.77737557 C66.4328678,2.77737557 66.2382031,2.85556483 66.1019357,3.0119457 C65.9656684,3.16832657 65.8975357,3.37357339 65.8975357,3.62769231 L65.8975357,6.32524887 C65.8975357,6.57936779 65.970535,6.77972777 66.1165357,6.92633484 C66.2625365,7.07294191 66.4523346,7.14624434 66.6859357,7.14624434 L69.3723357,7.14624434 C69.6254037,7.14624434 69.824935,7.07294191 69.9709357,6.92633484 C70.1169365,6.77972777 70.1899357,6.57936779 70.1899357,6.32524887 L70.1899357,4.94714932 Z M59.7947357,18.6108597 C58.8797978,18.6108597 58.0330063,18.3909524 57.2543357,17.9511312 C56.4756652,17.51131 55.8624713,16.9053432 55.4147357,16.1332127 C54.9670001,15.3610821 54.7431357,14.5205475 54.7431357,13.6115837 C54.7431357,12.7026199 54.9670001,11.8620853 55.4147357,11.0899548 C55.8624713,10.3178242 56.4756652,9.70208374 57.2543357,9.24271493 C58.0330063,8.78334612 58.8749312,8.55366516 59.7801357,8.55366516 C60.6853402,8.55366516 61.5223985,8.78334612 62.2913357,9.24271493 C63.0602729,9.70208374 63.6686001,10.3178242 64.1163357,11.0899548 C64.5640713,11.8620853 64.7879357,12.7026199 64.7879357,13.6115837 C64.7879357,14.5205475 64.5640713,15.3610821 64.1163357,16.1332127 C63.6686001,16.9053432 63.0602729,17.51131 62.2913357,17.9511312 C61.5223985,18.3909524 60.6902069,18.6108597 59.7947357,18.6108597 L59.7947357,18.6108597 Z M63.4739357,13.5969231 C63.4739357,12.9323044 63.3084707,12.3116771 62.9775357,11.7350226 C62.6466007,11.1583682 62.1988719,10.7038931 61.6343357,10.3715837 C61.0697996,10.0392744 60.4517391,9.87312217 59.7801357,9.87312217 C59.1085324,9.87312217 58.4904719,10.0392744 57.9259357,10.3715837 C57.3613996,10.7038931 56.9136707,11.1534813 56.5827357,11.720362 C56.2518007,12.2872427 56.0863357,12.9078699 56.0863357,13.5822624 C56.0863357,14.256655 56.2518007,14.8772822 56.5827357,15.4441629 C56.9136707,16.0110436 57.3613996,16.4655187 57.9259357,16.8076018 C58.4904719,17.149685 59.1085324,17.320724 59.7801357,17.320724 C60.4517391,17.320724 61.0697996,17.1545718 61.6343357,16.8222624 C62.1988719,16.4899531 62.6466007,16.0403648 62.9775357,15.4734842 C63.3084707,14.9066035 63.4739357,14.2810894 63.4739357,13.5969231 L63.4739357,13.5969231 Z" id="instagram" stroke="none" fill="#FFFFFF" fill-rule="evenodd"></path>
</svg>