<?xml version="1.0" standalone="no"?>
<!DOCTYPE svg PUBLIC "-//W3C//DTD SVG 20010904//EN"
 "http://www.w3.org/TR/2001/REC-SVG-20010904/DTD/svg10.dtd">
<svg version="1.0" xmlns="http://www.w3.org/2000/svg"
 width="1619.000000pt" height="403.000000pt" viewBox="0 0 1619.000000 403.000000"
 preserveAspectRatio="xMidYMid meet">
<metadata>
Created by potrace 1.13, written by Peter Selinger 2001-2015
</metadata>
<g transform="translate(0.000000,403.000000) scale(0.100000,-0.100000)"
fill="#000000" stroke="none">
<path d="M8885 3695 c-191 -48 -324 -144 -393 -284 -14 -31 -27 -60 -29 -66
-1 -5 -6 -30 -10 -55 -21 -107 2 -239 58 -323 89 -135 208 -192 619 -298 239
-61 321 -116 333 -222 5 -44 -14 -101 -45 -134 -120 -129 -478 -117 -593 19
-43 51 -71 121 -74 189 -1 14 -23 16 -181 17 l-180 0 0 -48 c0 -145 73 -296
190 -394 132 -111 313 -165 546 -164 321 1 550 112 650 313 42 87 58 166 51
270 -6 93 -28 155 -81 228 -88 120 -191 175 -456 242 -334 84 -429 119 -460
169 -18 29 -21 124 -5 155 43 84 133 122 275 117 139 -5 216 -39 265 -116 20
-32 38 -88 40 -125 0 -6 69 -10 185 -10 l185 0 -3 40 c-14 210 -139 372 -346
450 -152 57 -380 70 -541 30z"/>
<path d="M185 2828 l0 -853 178 -3 177 -2 1 597 c0 354 4 590 9 578 5 -11 25
-66 44 -122 34 -97 57 -163 140 -400 19 -54 67 -190 106 -303 39 -113 83 -238
97 -277 l26 -73 146 0 147 0 31 93 c29 87 109 318 280 807 41 118 79 231 85
250 5 19 13 39 18 43 4 5 8 -254 8 -575 0 -321 1 -591 1 -600 1 -16 16 -18
176 -18 l175 0 0 178 c0 201 0 1450 0 1500 l0 32 -265 0 -264 0 -96 -297 c-53
-164 -100 -309 -105 -323 -5 -14 -46 -140 -91 -280 -44 -140 -84 -258 -88
-262 -3 -4 -32 68 -63 160 -31 92 -116 340 -188 552 -73 212 -136 400 -141
418 l-10 32 -267 0 -267 0 0 -852z"/>
<path d="M5010 3540 l0 -140 170 0 170 0 0 140 0 140 -170 0 -170 0 0 -140z"/>
<path d="M10020 2825 l0 -855 170 0 170 0 1 338 c0 416 3 456 30 527 37 93
105 137 219 141 130 5 194 -45 221 -176 8 -36 12 -189 12 -442 l0 -388 171 0
171 0 -2 443 c-1 480 -6 531 -58 640 -44 94 -143 164 -264 187 -81 15 -217 6
-283 -19 -70 -27 -137 -77 -183 -138 l-35 -46 0 322 0 321 -170 0 -170 0 0
-855z"/>
<path d="M11470 2825 l0 -855 170 0 170 0 1 78 c0 42 0 138 0 213 l-1 136 66
62 66 63 16 -23 c9 -13 50 -80 92 -149 42 -69 112 -182 155 -252 l77 -128 204
0 c112 0 204 2 204 5 0 3 -115 179 -256 392 l-256 387 233 228 234 227 -200 1
-200 0 -217 -223 -218 -222 1 280 c0 154 0 360 0 458 l-1 177 -170 0 -170 0 0
-855z"/>
<path d="M12830 3540 l0 -140 170 0 170 0 0 140 0 140 -170 0 -170 0 0 -140z"/>
<path d="M14290 3540 l0 -140 170 0 170 0 0 140 0 140 -170 0 -170 0 0 -140z"/>
<path d="M13530 3395 l0 -185 -103 0 -103 0 0 -115 0 -115 103 0 103 0 0 -393
c0 -442 3 -466 65 -530 46 -47 81 -65 163 -82 70 -15 330 -18 352 -5 11 7 13
54 11 215 l-1 50 -95 0 c-90 0 -96 1 -122 28 l-28 27 -3 345 -2 345 125 0 c93
0 125 3 126 13 1 12 1 96 0 175 l-1 42 -125 0 -126 0 1 118 c1 64 1 147 1 185
l-1 67 -170 0 -170 0 0 -185z"/>
<path d="M2770 3237 c-88 -10 -203 -46 -263 -83 -97 -60 -168 -159 -182 -255
-4 -24 -9 -47 -11 -51 -10 -16 24 -20 164 -19 81 0 155 0 165 0 11 1 17 9 17
23 0 37 38 102 73 125 41 28 105 41 187 36 116 -6 180 -61 180 -155 0 -27 -5
-58 -10 -69 -17 -30 -96 -65 -170 -74 -8 -1 -37 -5 -65 -9 -27 -4 -63 -9 -80
-11 -106 -14 -138 -19 -204 -36 -156 -40 -242 -111 -277 -229 -29 -96 -20
-210 22 -297 61 -126 202 -195 391 -192 150 2 270 38 357 104 53 40 56 41 56
18 0 -10 5 -35 11 -55 l10 -38 169 0 c94 0 170 2 170 4 0 3 -4 15 -9 29 -20
53 -24 119 -26 522 -3 498 -5 511 -99 598 -104 96 -329 141 -576 114z m315
-904 c-21 -72 -81 -134 -150 -153 -27 -8 -82 -13 -123 -12 -127 2 -183 46
-190 149 -3 49 0 64 20 93 38 56 93 80 246 105 75 13 153 29 172 37 l35 15 3
-90 c2 -60 -2 -107 -13 -144z"/>
<path d="M6211 3234 c-74 -20 -159 -73 -215 -136 l-46 -51 0 84 0 84 -160 0
-160 0 0 -622 0 -623 170 0 170 0 0 393 c0 458 2 470 78 546 116 115 298 88
342 -52 11 -32 14 -144 16 -457 1 -228 3 -418 3 -422 1 -5 78 -8 171 -8 l170
0 1 393 c0 215 3 406 5 422 8 48 45 118 78 147 93 80 272 54 320 -47 26 -55
31 -142 31 -547 l0 -368 171 0 171 0 -2 463 c-2 488 -4 514 -50 611 -63 132
-198 203 -390 203 -146 1 -242 -41 -344 -153 -24 -25 -44 -44 -45 -42 -1 2
-13 20 -25 40 -32 53 -95 104 -160 129 -72 27 -222 34 -300 13z"/>
<path d="M15493 3235 c-82 -23 -151 -62 -204 -117 -27 -28 -49 -54 -49 -59 0
-5 -4 -9 -9 -9 -4 0 -7 34 -7 76 1 44 -2 78 -8 82 -6 4 -80 7 -163 7 l-153 1
0 -623 0 -623 170 0 170 0 1 348 c0 390 2 427 25 497 35 109 101 156 224 161
132 5 196 -47 221 -182 7 -36 11 -207 12 -441 l0 -383 171 0 171 0 -1 437 c-2
453 -6 514 -45 619 -39 103 -149 190 -270 212 -75 14 -200 12 -256 -3z"/>
<path d="M3631 3191 c8 -11 35 -51 61 -88 77 -112 146 -211 240 -346 56 -80
88 -134 84 -143 -3 -9 -59 -93 -124 -187 -65 -95 -162 -236 -216 -315 l-97
-142 193 2 193 3 70 105 c39 58 96 145 127 193 l56 88 132 -196 131 -195 195
0 195 0 -33 47 c-18 26 -37 52 -41 58 -9 10 -180 257 -295 425 -36 52 -71 102
-79 111 -11 14 1 37 98 175 62 87 131 187 156 222 24 34 66 94 93 132 l50 70
-190 0 -190 0 -101 -152 c-56 -84 -105 -156 -108 -161 -4 -4 -56 65 -115 153
l-108 160 -195 0 c-192 0 -195 0 -182 -19z"/>
<path d="M5010 2590 l0 -620 170 0 170 0 0 620 0 620 -170 0 -170 0 0 -620z"/>
<path d="M12830 2590 l0 -620 170 0 170 0 0 620 0 620 -170 0 -170 0 0 -620z"/>
<path d="M14290 2590 l0 -620 170 0 170 0 0 620 0 620 -170 0 -170 0 0 -620z"/>
<path d="M7420 1423 c-142 -36 -263 -138 -329 -276 -22 -45 -42 -93 -45 -107
-2 -14 -9 -45 -14 -69 -6 -24 -10 -87 -10 -141 0 -196 60 -348 180 -461 146
-136 395 -167 592 -74 66 31 138 100 170 162 l25 48 1 -117 0 -118 33 0 32 0
-2 257 c-1 142 -3 268 -3 281 l0 22 -240 0 -240 0 0 -30 0 -30 210 0 210 0 0
-53 c0 -255 -204 -434 -470 -413 -203 16 -341 130 -405 336 -23 76 -28 255 -8
345 34 160 129 288 261 352 67 32 86 37 168 39 157 6 264 -40 355 -153 22 -27
69 -128 69 -147 0 -12 10 -16 36 -16 35 0 35 0 29 38 -9 60 -56 143 -115 203
-118 119 -312 168 -490 122z"/>
<path d="M190 840 l0 -570 38 0 37 0 -2 280 -2 279 286 1 c293 0 304 2 298 39
-2 14 -34 16 -293 19 l-292 2 3 228 2 227 323 3 322 2 0 30 0 30 -360 0 -360
0 0 -570z"/>
<path d="M6355 1165 c0 -135 -1 -245 -2 -245 -1 0 -10 14 -18 30 -26 50 -80
99 -142 128 -50 23 -71 27 -153 27 -76 0 -105 -5 -142 -22 -103 -47 -183 -157
-207 -283 -13 -72 -6 -232 13 -291 35 -112 94 -184 186 -228 47 -22 68 -26
150 -26 84 0 102 3 152 28 53 26 97 66 144 131 l21 29 -2 -87 -2 -86 31 0 31
0 0 568 0 567 -30 3 -31 3 1 -246z m-215 -121 c73 -22 148 -97 179 -180 65
-177 28 -393 -85 -493 -61 -53 -111 -70 -197 -67 -141 4 -240 92 -279 246 -22
85 -16 222 13 306 56 161 204 237 369 188z"/>
<path d="M3140 1220 l0 -130 -75 0 c-73 0 -75 -1 -75 -25 0 -24 2 -25 74 -25
l75 0 3 -332 c3 -312 4 -335 23 -366 27 -44 88 -72 158 -72 54 0 57 1 57 25 0
22 -4 25 -34 25 -64 0 -96 12 -119 44 -22 30 -22 37 -23 354 l-1 322 88 0 c63
0 88 4 92 13 10 28 -10 36 -93 39 l-85 3 -1 115 c-1 63 -2 121 -3 128 -1 6
-14 12 -31 12 l-30 0 0 -130z"/>
<path d="M1633 1101 c-164 -42 -270 -193 -279 -397 -6 -140 30 -254 104 -336
76 -84 162 -119 287 -115 146 5 253 77 316 211 59 127 59 302 0 430 -40 85
-90 139 -166 177 -53 26 -78 32 -147 35 -46 2 -97 0 -115 -5z m224 -69 c210
-108 253 -466 78 -646 -56 -58 -115 -81 -210 -81 -70 0 -87 4 -134 30 -116 64
-181 198 -176 361 3 95 24 166 68 231 35 51 109 107 161 122 54 15 167 6 213
-17z"/>
<path d="M2505 1094 c-79 -25 -139 -75 -178 -149 -16 -30 -16 -29 -17 58 l0
87 -30 0 -30 0 0 -410 0 -410 30 0 30 0 1 238 c0 273 3 309 34 377 30 69 68
111 129 143 44 23 63 27 137 27 76 0 90 -3 127 -27 22 -15 54 -49 69 -75 l28
-48 3 -317 4 -318 29 0 29 0 1 213 c1 416 -2 445 -52 520 -43 66 -108 97 -212
103 -57 3 -97 -1 -132 -12z"/>
<path d="M4283 1095 c-183 -55 -291 -273 -254 -515 31 -197 149 -316 327 -328
189 -12 317 73 373 247 16 48 14 51 -18 51 -26 0 -31 -5 -46 -50 -23 -70 -87
-148 -141 -171 -63 -29 -158 -35 -225 -16 -119 35 -201 153 -211 307 l-3 45
334 0 333 0 -5 76 c-11 144 -70 257 -167 320 -70 45 -209 61 -297 34z m241
-69 c86 -50 142 -145 159 -268 l6 -38 -301 0 -301 0 7 53 c18 136 109 246 231
278 57 15 151 3 199 -25z"/>
<path d="M5140 1094 c-74 -27 -128 -71 -165 -136 l-25 -43 0 88 0 87 -30 0
-30 0 0 -410 0 -410 30 0 30 0 1 238 c0 285 3 310 40 389 35 75 94 128 163
148 129 39 248 -1 295 -98 28 -60 29 -71 30 -389 l1 -288 31 0 30 0 -3 322
c-3 304 -4 326 -24 368 -25 54 -65 95 -117 122 -54 27 -195 34 -257 12z"/>
<path d="M1213 1081 c-73 -25 -131 -68 -165 -120 l-28 -45 0 88 0 87 -31 -3
-31 -3 1 -380 c0 -209 0 -392 1 -407 0 -24 4 -28 30 -28 l30 0 0 238 c1 263 4
299 30 357 47 106 144 172 258 174 29 1 32 4 32 31 0 28 -2 30 -37 29 -21 0
-62 -8 -90 -18z"/>
<path d="M9344 1089 c-66 -15 -145 -69 -181 -123 l-33 -48 0 86 0 86 -30 0
-30 0 0 -410 0 -410 30 0 30 0 0 238 c1 130 3 255 6 277 19 134 126 238 259
252 53 6 55 7 55 34 0 26 -3 29 -32 28 -18 -1 -51 -5 -74 -10z"/>
<path d="M8239 903 c-1 -412 1 -437 30 -506 38 -87 114 -136 225 -144 143 -11
272 55 321 162 13 28 13 25 14 -57 l1 -88 30 0 30 0 0 410 0 410 -30 0 -30 0
0 -247 c0 -270 -8 -329 -53 -406 -55 -94 -124 -130 -249 -131 -81 -1 -89 1
-130 29 -52 37 -86 99 -93 168 -2 29 -4 172 -5 320 l0 267 -30 0 -30 0 -1
-187z"/>
<path d="M9512 768 c3 -304 4 -326 24 -368 27 -57 67 -97 124 -124 36 -17 64
-21 140 -21 85 0 101 3 149 28 60 32 110 80 135 130 15 32 16 32 16 -55 l0
-88 30 0 30 0 0 410 0 410 -30 0 -30 0 -1 -242 c0 -134 -2 -252 -4 -263 -2
-11 -7 -36 -10 -55 -15 -81 -79 -166 -150 -199 -61 -28 -152 -37 -211 -21 -75
21 -132 89 -149 178 -2 9 -4 149 -4 310 l-1 292 -31 0 -30 0 3 -322z"/>
<path d="M3510 710 l0 -30 172 2 171 3 1 28 2 27 -173 0 -173 0 0 -30z"/>
</g>
</svg>
